<svg width="1440" height="490" viewBox="0 0 1440 490" fill="none" xmlns="http://www.w3.org/2000/svg">
<g clip-path="url(#clip0_225_12212)">
<path d="M-414.526 496.667C-31.6853 496.773 350.966 494.211 733.712 491.312C899.317 490.05 1066.06 490.464 1231.64 493.123C1438.93 496.446 1646.3 493.315 1853.54 496.667" stroke="url(#paint0_linear_225_12212)" stroke-opacity="0.12" stroke-width="0.757426" stroke-miterlimit="10"/>
<path d="M-414.526 482.545C-306.05 482.545 -197.542 483.056 -89.0814 482.805C7.8494 482.584 104.56 477.777 201.459 476.949C381.964 475.408 562.437 477.199 742.927 475.379C903.129 473.761 1064.98 469.474 1225.08 476.015C1318.38 479.867 1410.73 481.621 1504.12 483.21C1620.68 485.194 1737.09 479.81 1853.6 482.545" stroke="url(#paint1_linear_225_12212)" stroke-opacity="0.12" stroke-width="0.757426" stroke-miterlimit="10"/>
<path d="M-414.526 468.618C-307.609 468.618 -200.409 469.716 -93.5232 468.531C6.92011 467.414 106.781 459.582 207.145 457.569C387.997 453.938 567.431 464.312 748.093 462.463C907.066 460.864 1063.79 447.879 1222.93 459.496C1315.96 466.287 1406.1 471.604 1499.8 473.155C1617.93 475.081 1735.48 465.709 1853.6 468.618" stroke="url(#paint2_linear_225_12212)" stroke-opacity="0.12" stroke-width="0.757426" stroke-miterlimit="10"/>
<path d="M-414.526 454.959C-309.546 454.959 -203.795 456.712 -98.8942 454.294C6.00655 451.876 109.411 440.751 213.997 437.158C309.069 433.892 402.802 434.769 497.371 441.878C582.126 448.254 664.456 452.859 749.904 452.165C824.8 451.549 894.97 444.594 968.936 438.111C1053.58 430.685 1140.73 434.153 1224.59 443.612C1316.89 454.034 1403.94 464.003 1498.2 465.14C1617.08 466.585 1734.63 452.464 1853.6 454.959" stroke="url(#paint3_linear_225_12212)" stroke-opacity="0.12" stroke-width="0.757426" stroke-miterlimit="10"/>
<path d="M-414.526 441.492C-311.814 441.492 -207.544 443.852 -105.006 440.076C4.55746 436.05 112.262 421.466 221.589 415.995C315.457 411.237 409.951 414.498 502.348 425.685C584.835 435.529 664.582 444.324 748.896 443.919C826.973 443.544 897.616 431.455 973.409 421.678C1059.44 410.581 1144.57 414.791 1229.3 428.247C1320.1 442.696 1403.93 458.262 1498.83 458.676C1617.92 459.206 1734.3 439.874 1853.6 441.502" stroke="url(#paint4_linear_225_12212)" stroke-opacity="0.12" stroke-width="0.757426" stroke-miterlimit="10"/>
<path d="M-414.526 428.238C-314.24 428.181 -211.497 431.128 -111.558 425.975C3.1714 420.109 115.255 402.009 229.559 394.448C325.481 388.11 414.127 394.005 506.648 409.927C585.859 423.567 662.582 437.226 745.667 437.254C827.824 437.254 900.908 419.097 978.875 405.843C1067.69 390.749 1149.6 395.141 1236.39 413.376C1324.72 431.928 1405.82 453.832 1501.24 453.35C1620.16 452.695 1734.35 427.795 1853.6 428.238" stroke="url(#paint5_linear_225_12212)" stroke-opacity="0.12" stroke-width="0.757426" stroke-miterlimit="10"/>
<path d="M-414.526 415.196C-316.776 415.109 -215.577 418.384 -118.41 412.046C1.58053 404.224 117.853 382.628 237.418 372.88C334.68 364.953 419.104 373.429 510.129 394.64C585.229 412.142 658.99 431.108 740.721 431.706C827.099 432.341 904.972 407.403 984.86 390.614C1077.11 371.224 1155.88 375.346 1245.03 398.975C1329.93 421.476 1409.09 450.364 1504.92 448.745C1623.42 446.742 1734.6 416.12 1853.57 415.196" stroke="url(#paint6_linear_225_12212)" stroke-opacity="0.12" stroke-width="0.757426" stroke-miterlimit="10"/>
<path d="M-414.526 402.367C-319.28 402.251 -219.656 405.738 -125.119 398.35C0.00548605 388.573 120.484 363.587 245.026 351.662C344.256 342.155 423.893 353.039 512.995 379.837C583.465 401.028 654.249 425.504 734.846 426.795C825.445 428.23 909.571 395.836 991.302 375.926C1034.11 365.552 1079.24 355.833 1125.91 358.067C1171.59 360.264 1214.84 372.025 1254.78 385.038C1335.3 411.209 1413.74 447.235 1509.55 444.48C1627.53 441.08 1735 404.756 1853.61 402.396" stroke="url(#paint7_linear_225_12212)" stroke-opacity="0.12" stroke-width="0.757426" stroke-miterlimit="10"/>
<path d="M-414.448 389.757C-321.518 389.612 -223.516 393.186 -131.563 384.94C-1.66528 373.324 122.578 345.11 251.735 331.124C353.233 320.124 428.27 333.214 514.963 365.531C580.692 390.036 648.515 419.983 728.387 422.016C822.893 424.414 914.248 384.401 997.538 361.755C1041.17 349.888 1089.29 337.375 1138.02 340.13C1183.7 342.712 1226.49 356.814 1264.69 371.436C1340.84 400.603 1418.48 443.9 1514.53 440.038C1632 435.299 1735.32 393.455 1853.63 389.757" stroke="url(#paint8_linear_225_12212)" stroke-opacity="0.12" stroke-width="0.757426" stroke-miterlimit="10"/>
<path d="M-414.43 377.37C-323.721 377.196 -227.168 380.77 -137.561 371.918C-3.42701 358.654 124.155 327.464 257.313 311.609C308.015 305.579 356.071 302.092 405.733 312.669C446.197 321.29 481.794 336.422 516.131 351.719C577.559 379.065 642.406 414.137 722.089 416.882C820.06 420.263 918.755 372.997 1003.4 348.039C1047.79 334.949 1098.87 319.787 1149.46 322.995C1195.34 325.884 1237.57 342.134 1274.13 358.182C1346.23 389.815 1422.94 439.884 1519.51 435.039C1636.55 429.154 1735.59 382.128 1853.69 377.322" stroke="url(#paint9_linear_225_12212)" stroke-opacity="0.12" stroke-width="0.757426" stroke-miterlimit="10"/>
<path d="M-414.415 365.185C-325.611 365.002 -230.366 368.556 -142.822 359.3C-5.28576 344.755 124.722 310.887 261.235 293.539C312.11 287.076 360.024 283.069 409.435 295.071C449.521 304.867 483.684 321.675 516.351 338.474C574.173 368.171 636.31 407.645 716.388 410.968C767.562 413.097 819.02 396.77 863.217 382.947C912.25 367.612 959.392 350.139 1008.41 334.785C1053.46 320.683 1107.01 303.383 1159.3 306.995C1205.52 310.184 1247.08 328.09 1282.33 345.333C1351.13 379.046 1426.39 434.779 1523.89 429.135C1640.73 422.392 1735.63 370.685 1853.71 365.146" stroke="url(#paint10_linear_225_12212)" stroke-opacity="0.12" stroke-width="0.757426" stroke-miterlimit="10"/>
<path d="M-414.399 353.22C-327.187 353.037 -232.949 356.601 -147.091 347.171C-7.12922 331.807 124.391 295.628 263.187 277.201C313.826 270.458 362.103 266.153 411.009 279.012C451.048 289.54 484.188 307.794 515.674 325.749C571.085 357.333 630.875 400.082 711.929 403.771C764.506 406.141 817.46 388.456 862.35 373.834C913.021 357.314 961.581 338.512 1012.25 321.973C1057.93 307.052 1113.06 288.394 1166.75 292.199C1213.45 295.512 1254.31 314.536 1288.6 332.771C1355.27 368.208 1428.23 427.939 1527.29 421.919C1644.13 414.82 1735.41 358.961 1853.73 353.259" stroke="url(#paint11_linear_225_12212)" stroke-opacity="0.12" stroke-width="0.757426" stroke-miterlimit="10"/>
<path d="M-414.369 341.47C-328.385 341.315 -234.73 344.947 -150.132 335.594C-8.98868 319.989 122.893 281.912 262.761 262.985C312.707 256.242 361.881 251.85 410.095 264.796C450.464 275.632 483.147 294.868 514.05 313.584C568.58 346.661 626.606 391.125 709.361 394.708C763.103 397.039 816.199 379.171 861.719 363.884C913.461 346.546 962.918 326.78 1014.64 309.423C1060.9 293.895 1116.27 274.938 1171.07 278.714C1218.32 281.97 1258.48 301.341 1292.35 320.355C1358.5 357.488 1427.98 418.731 1529.35 412.769C1646.49 405.882 1735.01 346.584 1853.82 341.489" stroke="url(#paint12_linear_225_12212)" stroke-opacity="0.12" stroke-width="0.757426" stroke-miterlimit="10"/>
<path d="M-414.354 329.91C-328.685 329.582 -235.329 333.666 -151.094 324.13C-10.9108 308.227 119.286 269.014 258.051 249.643C307.855 242.698 356.998 238.537 405.18 251.328C446.132 262.223 479.461 281.69 510.821 300.637C566.359 334.196 624.999 379.228 708.841 383.428C762.961 386.134 815.742 368.488 861.467 352.96C913.287 335.352 962.65 315.201 1014.46 297.583C1060.94 281.767 1116.02 263.07 1171.22 267.116C1218.79 270.603 1258.72 290.012 1292.65 309.239C1359.07 346.892 1427.22 407.326 1529.4 401.71C1646.87 395.275 1734.47 334.36 1853.77 329.91" stroke="url(#paint13_linear_225_12212)" stroke-opacity="0.12" stroke-width="0.757426" stroke-miterlimit="10"/>
<path d="M-414.338 318.612C-328.307 318.015 -235.235 323.168 -150.7 312.968C-13.0063 296.352 114.261 256.493 250.49 236.438C300.893 229.011 348.744 225.149 397.619 238.027C439.311 248.999 473.822 268.264 506.331 287.047C563.712 320.24 624.825 365.724 708.667 371.456C762.456 375.135 815.426 357.441 860.757 341.923C911.948 324.401 960.571 304.231 1011.75 286.69C1058.13 270.787 1113.21 252.235 1168.34 257.042C1215.77 261.174 1256.28 280.863 1290.68 299.877C1357.45 336.769 1427.57 396.067 1528.52 390.615C1646.27 384.248 1734.16 322.985 1853.74 318.612" stroke="url(#paint14_linear_225_12212)" stroke-opacity="0.12" stroke-width="0.757426" stroke-miterlimit="10"/>
<path d="M-414.304 307.504C-327.785 306.791 -234.965 313.38 -149.91 302.582C-15.0197 285.456 108.924 245.077 242.286 224.559C293.114 216.719 339.847 213.222 389.274 225.937C431.612 236.831 467.508 255.595 501.231 274.234C560.533 306.984 624.465 352.305 708.229 359.423C761.53 363.96 814.09 346.631 859.012 331.181C909.336 313.842 956.935 293.797 1007.23 276.469C1053.47 260.537 1108.03 242.514 1162.91 248.005C1210.38 252.763 1251.62 272.539 1286.79 291.351C1354.44 327.472 1426.86 385.286 1527.04 379.911C1645.31 373.573 1733.69 311.916 1853.79 307.562" stroke="url(#paint15_linear_225_12212)" stroke-opacity="0.12" stroke-width="0.757426" stroke-miterlimit="10"/>
<path d="M-414.273 296.611C-327.155 295.927 -234.382 304.259 -148.729 292.912C-16.9258 275.468 103.411 234.674 233.639 213.801C284.672 205.623 330.523 202.55 380.358 214.899C423.453 225.572 460.688 243.796 495.718 262.098C557.493 294.261 623.662 338.926 707.661 347.354C760.332 352.633 811.964 336.056 856.444 320.711C905.666 303.72 952.052 283.848 1001.24 266.837C1047.31 250.895 1100.82 233.769 1155.36 239.866C1203.06 245.212 1245.14 264.911 1281.37 283.463C1350.38 318.785 1425.38 374.826 1525.02 369.48C1644.02 363.094 1733.07 301.022 1853.9 296.64" stroke="url(#paint16_linear_225_12212)" stroke-opacity="0.12" stroke-width="0.757426" stroke-miterlimit="10"/>
<path d="M-414.258 285.929C-326.431 285.39 -233.69 295.725 -147.265 283.887C-18.7693 266.289 97.7399 225.129 224.613 204.14C275.614 195.683 320.835 193.053 370.923 204.863C414.789 215.208 453.332 232.797 489.795 250.54C554.373 281.97 622.559 325.567 706.873 335.209C808.624 346.854 911.446 286.247 993.901 257.677C1039.8 241.765 1091.86 225.823 1145.93 232.498C1194 238.441 1236.97 257.947 1274.44 276.22C1345.19 310.713 1423 364.751 1522.39 359.376C1642.27 352.903 1732.18 290.379 1853.87 285.929" stroke="url(#paint17_linear_225_12212)" stroke-opacity="0.12" stroke-width="0.757426" stroke-miterlimit="10"/>
<path d="M-414.227 275.469C-325.628 275.17 -232.872 287.721 -145.549 275.469C-20.5026 257.861 91.9901 216.509 215.335 195.452C266.163 186.783 310.943 184.625 361.172 195.751C405.842 205.662 445.723 222.471 483.62 239.655C551.002 270.19 621.219 312.332 705.959 323.168C806.166 335.96 904.562 277.106 985.49 248.999C1030.24 233.481 1082.4 217.838 1135 225.833C1183.82 233.25 1226.84 251.233 1266.44 269.535C1339.22 303.152 1420.02 355.004 1519.41 349.571C1640.32 342.973 1731.18 279.977 1853.9 275.401" stroke="url(#paint18_linear_225_12212)" stroke-opacity="0.12" stroke-width="0.757426" stroke-miterlimit="10"/>
<path d="M-414.196 265.209C-324.762 265.209 -231.911 280.168 -143.612 267.463C-22.1252 249.98 86.2408 208.455 205.947 187.514C413.859 151.113 522.319 285.495 704.951 311.213C803.394 325.094 896.812 268.359 976.275 240.82C1020.82 225.408 1070.97 211.373 1122.9 219.821C1172.34 227.864 1216.37 245.453 1257.55 263.408C1332.61 296.158 1416.54 345.649 1516.14 340.13C1638.16 333.387 1730.1 269.9 1853.95 265.209" stroke="url(#paint19_linear_225_12212)" stroke-opacity="0.12" stroke-width="0.757426" stroke-miterlimit="10"/>
<path d="M-414.162 255.172C-323.862 255.576 -230.853 272.992 -141.498 259.911C-23.6346 242.659 80.5888 201.038 196.562 180.28C400.174 143.85 524.18 271.788 703.866 299.346C800.608 314.199 888.419 259.978 966.433 232.969C1010.79 217.615 1058.75 205.43 1109.94 214.263C1160.04 222.932 1205.18 240.078 1248.03 257.657C1325.49 289.444 1412.62 336.556 1512.64 330.912C1635.86 323.967 1728.95 260.017 1853.99 255.172" stroke="url(#paint20_linear_225_12212)" stroke-opacity="0.12" stroke-width="0.757426" stroke-miterlimit="10"/>
<path d="M-414.131 245.347C-322.934 246.166 -229.736 266.124 -139.263 252.716C-25.0062 235.782 74.9488 194.112 187.331 173.634C386.627 137.31 525.975 258.255 702.747 287.653C797.756 303.45 879.598 251.897 956.241 225.418C1000.44 210.15 1046.02 199.921 1096.42 209.043C1147.22 218.28 1193.53 235.05 1238.07 252.196C1318.02 283.02 1408.37 327.676 1508.89 321.906C1633.32 314.749 1727.64 250.318 1853.93 245.309" stroke="url(#paint21_linear_225_12212)" stroke-opacity="0.12" stroke-width="0.757426" stroke-miterlimit="10"/>
<path d="M-414.101 235.732C-322.021 236.975 -228.555 259.486 -136.885 245.798C-26.1567 229.25 69.6716 187.561 178.431 167.429C373.49 131.317 527.738 244.999 701.612 276.16C794.905 292.882 870.603 244.074 945.94 218.105C989.948 202.934 1033.31 194.718 1082.88 204.167C1134.38 213.992 1181.9 230.338 1228.12 247.06C1310.57 276.921 1404.1 319.111 1505.25 313.196C1630.99 305.837 1726.47 240.953 1854.02 235.732" stroke="url(#paint22_linear_225_12212)" stroke-opacity="0.12" stroke-width="0.757426" stroke-miterlimit="10"/>
<path d="M-414.07 226.343C-321.14 228 -227.359 253.006 -134.634 239.087C-27.3073 222.972 64.473 181.292 169.767 161.556C360.967 125.723 529.517 232.007 700.572 264.911C792.163 282.539 861.703 236.477 935.811 210.97C979.63 195.895 1020.87 189.692 1069.49 199.411C1121.7 209.833 1170.42 225.804 1218.29 242.063C1303.17 270.903 1399.82 310.714 1501.66 304.674C1628.66 297.113 1725.32 231.699 1854.12 226.362" stroke="url(#paint23_linear_225_12212)" stroke-opacity="0.12" stroke-width="0.757426" stroke-miterlimit="10"/>
<path d="M-414.04 217.154C-320.18 219.206 -226.179 246.61 -132.32 232.499C-28.2221 216.846 59.6835 175.196 161.702 155.883C349.232 120.377 531.264 219.283 699.452 253.931C789.516 272.483 852.834 228.973 925.918 203.977C969.595 189.047 1008.67 184.712 1056.48 194.711C1109.37 205.73 1159.27 221.383 1208.69 237.171C1295.91 265.018 1395.53 302.488 1498.08 296.294C1626.28 288.54 1724.08 222.655 1854.05 217.154" stroke="url(#paint24_linear_225_12212)" stroke-opacity="0.12" stroke-width="0.757426" stroke-miterlimit="10"/>
<path d="M-414.005 208.185C-319.264 210.574 -224.995 240.232 -130.08 225.976C-28.9597 210.795 55.3075 169.145 154.27 150.284C250.272 131.983 352.4 152.644 442.07 174.722C528.542 196.019 610.746 223.953 698.51 243.266C787.439 262.839 844.158 221.381 916.691 197.03C1013.01 164.714 1111.66 205.7 1199.81 232.275C1289.14 259.169 1391.56 294.405 1494.8 288.076C1624.13 280.158 1722.99 213.81 1854.12 208.175" stroke="url(#paint25_linear_225_12212)" stroke-opacity="0.12" stroke-width="0.757426" stroke-miterlimit="10"/>
<path d="M-413.974 199.42C-318.351 202.088 -224.066 233.798 -127.938 219.436C-29.5112 204.718 51.401 163.096 147.702 144.65C242.821 126.406 347.643 146.22 437.738 166.438C525.959 186.243 609.927 212.395 697.675 232.969C785.423 253.544 836.676 214.119 908.28 190.115C1002.41 158.569 1105.17 202.637 1191.8 227.344C1282.99 253.352 1388.02 286.449 1491.82 280.033C1622.16 271.971 1722 205.18 1854.09 199.42" stroke="url(#paint26_linear_225_12212)" stroke-opacity="0.12" stroke-width="0.757426" stroke-miterlimit="10"/>
<path d="M-413.943 190.877C-317.422 193.767 -223.216 227.249 -125.97 212.801C-29.89 198.535 48.0454 156.933 141.795 138.843C236.189 120.686 343.406 139.69 433.91 158.233C523.69 176.64 609.343 201.222 696.95 223.059C738.28 233.356 768.569 233.78 808.529 220.497C841.007 209.699 868.477 194.017 900.908 183.142C944.175 168.617 978.638 169.021 1023.95 179.819C1078.4 192.813 1131.45 207.753 1184.88 222.269C1277.61 247.391 1384.92 278.561 1489.19 272.088C1620.42 263.939 1721.1 196.705 1854.13 190.877" stroke="url(#paint27_linear_225_12212)" stroke-opacity="0.12" stroke-width="0.757426" stroke-miterlimit="10"/>
<path d="M-413.913 182.534C-316.494 185.424 -222.572 220.505 -124.192 206.008C-30.0172 192.128 45.2562 150.371 137.115 132.744C231.022 114.722 340.207 132.937 431.074 150.082C521.94 167.228 609.184 190.539 696.507 213.656C736.861 224.339 766.362 225.851 805.976 212.635C837.383 202.155 863.592 186.686 894.921 176.129C937.952 161.622 971.88 163.163 1016.41 174.318C1071.13 188.025 1124.99 202.936 1179.43 217.047C1273.32 241.379 1382.73 270.815 1487.15 264.323C1619.11 256.126 1720.47 188.487 1854.15 182.621" stroke="url(#paint28_linear_225_12212)" stroke-opacity="0.12" stroke-width="0.757426" stroke-miterlimit="10"/>
<path d="M-413.879 174.425C-315.546 177.238 -222.159 213.533 -122.677 198.997C-29.9043 185.425 43.0222 143.351 133.605 126.244C227.386 108.51 337.752 125.897 429.186 141.819C521.36 157.857 609.36 180.195 696.321 204.584C735.856 215.662 765.026 217.993 804.34 204.777C834.897 194.518 860.051 179.145 890.513 168.79C933.34 154.236 967.236 156.596 1011.09 168.174C1065.88 182.622 1120.38 197.572 1175.65 211.385C1270.16 235.013 1381.39 262.928 1485.74 256.484C1618.22 248.296 1720.06 180.272 1854.31 174.425" stroke="url(#paint29_linear_225_12212)" stroke-opacity="0.12" stroke-width="0.757426" stroke-miterlimit="10"/>
<path d="M-413.848 166.516C-314.617 169.069 -222.034 206.24 -121.449 191.666C-29.6367 178.364 41.7147 136.107 131.211 119.202C224.693 101.555 336.508 118.566 428.178 133.496C521.297 148.667 609.691 170.398 696.242 196.107C735.131 207.666 764.459 210.459 803.568 197.157C833.495 186.975 857.862 171.592 887.741 161.315C930.41 146.635 964.779 149.409 1008.11 161.517C1062.8 176.794 1117.7 191.849 1173.59 205.431C1268.38 228.462 1380.9 255.125 1484.82 248.777C1617.62 240.676 1719.72 172.286 1854.28 166.516" stroke="url(#paint30_linear_225_12212)" stroke-opacity="0.12" stroke-width="0.757426" stroke-miterlimit="10"/>
<path d="M-413.802 158.81C-314.067 161.102 -222.129 198.678 -120.93 183.97C-29.4333 170.677 41.4929 128.458 130.706 111.649C224.093 94.0606 336.412 111.418 428.114 126.031C521.563 140.922 609.674 162.489 696.335 188.314C735.082 199.873 764.82 202.281 803.662 189.065C833.383 178.951 857.593 163.703 887.314 153.56C929.842 139.054 964.84 141.751 1007.76 154.205C1062.21 170.003 1117.18 185.174 1173.3 198.621C1267.63 221.228 1381.62 247.592 1484.74 241.003C1617.35 232.546 1720.11 165.312 1854.32 158.839" stroke="url(#paint31_linear_225_12212)" stroke-opacity="0.12" stroke-width="0.757426" stroke-miterlimit="10"/>
<path d="M-413.771 151.228C-313.816 153.405 -222.146 191.231 -120.71 176.349C-29.3553 162.941 41.9331 121.078 131.209 104.376C224.596 86.9024 336.663 105.021 428.223 119.73C521.374 134.698 609.106 156.227 696.366 180.828C778.963 204.11 819.9 168.306 887.928 145.978C930.455 132.021 965.674 134.564 1008.2 147.067C1062.42 163.008 1117.29 178.141 1173.4 191.433C1267.18 213.646 1382.65 240.135 1485.03 232.988C1617.07 223.76 1721.09 159.261 1854.4 151.372" stroke="url(#paint32_linear_225_12212)" stroke-opacity="0.12" stroke-width="0.757426" stroke-miterlimit="10"/>
<path d="M-413.737 143.762C-313.483 145.862 -222.033 183.968 -120.283 168.961C-28.9278 155.475 42.6441 114.056 131.967 97.5076C225.354 80.1692 337.091 98.9813 428.509 113.738C521.297 128.717 608.699 150.149 696.463 173.507C778.367 195.315 820.768 160.147 888.844 138.831C931.371 125.48 966.905 127.946 1009.05 140.468C1063.02 156.497 1117.74 171.513 1173.82 184.575C1267.23 206.335 1383.85 232.545 1485.38 224.916C1616.75 215.052 1722.05 153.356 1854.39 144.215" stroke="url(#paint33_linear_225_12212)" stroke-opacity="0.12" stroke-width="0.757426" stroke-miterlimit="10"/>
<path d="M-413.707 136.434C-313.106 138.476 -221.798 176.89 -119.669 161.815C-28.4246 148.349 43.5726 107.402 132.959 91.0264C226.346 73.977 337.72 93.2611 428.965 108.028C521.312 122.958 608.525 144.226 696.604 166.294C777.925 186.647 821.776 152.26 890.024 131.935C932.662 119.249 968.463 121.715 1010.3 134.228C1063.96 150.285 1118.57 165.129 1174.56 177.882C1267.73 199.121 1385.06 224.686 1485.9 216.662C1616.63 206.269 1723.13 147.472 1854.47 137.204" stroke="url(#paint34_linear_225_12212)" stroke-opacity="0.12" stroke-width="0.757426" stroke-miterlimit="10"/>
<path d="M-413.675 129.229C-312.649 131.252 -221.515 169.965 -118.866 154.88C-27.7002 141.491 44.738 101.006 134.203 84.9587C227.558 68.2079 338.366 87.9255 429.579 102.644C521.422 117.478 608.367 138.525 696.808 159.263C777.516 178.191 822.91 144.709 891.473 125.482C934.253 113.48 970.338 116.033 1011.9 128.507C1065.15 144.646 1119.78 159.006 1175.57 171.525C1268.66 192.177 1386.32 216.798 1486.57 208.408C1616.45 197.591 1724.27 141.761 1854.45 130.52" stroke="url(#paint35_linear_225_12212)" stroke-opacity="0.12" stroke-width="0.757426" stroke-miterlimit="10"/>
<path d="M-413.629 122.158C-312.147 124.181 -221.044 163.231 -117.891 148.166C-26.8039 134.883 46.1226 94.9369 135.698 79.2167C229.022 62.8416 339.357 82.8674 430.397 97.5183C521.752 112.198 608.46 132.956 697.106 152.346C777.215 169.877 824.247 137.387 893.22 119.326C936.204 108.066 972.557 110.763 1013.89 123.179C1066.81 139.211 1121.25 153.302 1176.91 165.379C1270.04 185.385 1387.69 208.667 1487.41 200.055C1616.45 188.911 1725.5 136.135 1854.54 124.017" stroke="url(#paint36_linear_225_12212)" stroke-opacity="0.12" stroke-width="0.757426" stroke-miterlimit="10"/>
<path d="M-413.595 115.244C-311.593 117.276 -220.505 156.663 -116.77 141.714C-25.7459 128.594 47.7004 89.2266 137.307 73.8821C230.584 57.9116 340.336 78.1782 431.297 92.7039C521.975 107.152 608.652 127.583 697.392 145.595C776.934 161.749 825.699 130.367 895.144 113.529C938.365 103.049 975.001 105.948 1016.16 118.345C1068.72 134.224 1122.91 147.998 1178.39 159.582C1271.68 178.847 1388.97 200.577 1488.26 191.764C1616.41 180.397 1726.63 130.733 1854.51 117.873" stroke="url(#paint37_linear_225_12212)" stroke-opacity="0.12" stroke-width="0.757426" stroke-miterlimit="10"/>
<path d="M-413.564 108.462C-310.994 110.542 -219.828 150.305 -115.495 135.432C-24.5333 122.544 49.4486 83.8025 139.15 68.8722C232.363 53.364 341.517 73.7751 432.273 88.1371C522.321 102.393 608.904 122.361 697.676 138.987C776.666 153.772 827.258 123.575 897.223 108.028C940.711 98.3956 977.631 101.517 1018.66 113.807C1070.88 129.498 1124.84 142.904 1180.16 153.927C1273.75 172.45 1390.37 192.341 1489.3 183.373C1616.52 171.814 1727.88 125.376 1854.56 111.852" stroke="url(#paint38_linear_225_12212)" stroke-opacity="0.12" stroke-width="0.757426" stroke-miterlimit="10"/>
<path d="M-413.534 101.834C-310.35 103.972 -219.199 144.12 -114.094 129.45C-23.1957 116.754 51.3689 78.6678 141.165 64.1999C234.299 49.2022 342.776 69.6808 433.406 83.8597C522.824 97.8556 609.328 117.323 698.021 132.542C776.476 146.027 829.005 117.063 899.522 102.855C943.309 94.0412 980.513 97.4992 1021.45 109.598C1073.3 125.05 1127.01 138.047 1182.11 148.474C1276.06 166.149 1391.74 183.989 1490.38 174.915C1616.66 163.356 1729.07 120.106 1854.56 106.024" stroke="url(#paint39_linear_225_12212)" stroke-opacity="0.12" stroke-width="0.757426" stroke-miterlimit="10"/>
<path d="M-413.503 95.3708C-309.673 97.5863 -218.428 138.119 -112.661 123.652C-21.7158 111.255 53.4316 73.8231 143.338 59.8561C236.378 45.4074 344.098 65.8763 434.729 79.8433C523.485 93.5407 609.925 112.449 698.524 126.252C776.444 138.399 831.02 110.783 902.12 97.9812C946.222 90.0441 983.694 93.8393 1024.6 105.88C1076.07 121.061 1129.51 133.604 1184.38 143.379C1278.69 160.149 1393.2 175.792 1491.63 166.612C1616.91 154.986 1730.33 115.108 1854.62 100.543" stroke="url(#paint40_linear_225_12212)" stroke-opacity="0.12" stroke-width="0.757426" stroke-miterlimit="10"/>
<path d="M-413.469 89.0999C-308.993 91.3828 -217.638 132.301 -110.942 118.074C-20.1381 105.957 55.6394 69.2572 145.64 55.8199C238.57 41.9396 345.55 62.3603 435.976 76.048C524.086 89.4178 610.464 107.7 698.873 120.097C776.305 130.962 833.039 104.685 904.69 93.3575C949.107 86.3162 986.878 90.4678 1027.8 102.422C1078.88 117.299 1132.04 129.352 1186.63 138.437C1281.56 154.234 1394.65 167.431 1492.92 158.27C1617.23 146.711 1731.55 110.185 1854.66 95.2069" stroke="url(#paint41_linear_225_12212)" stroke-opacity="0.12" stroke-width="0.757426" stroke-miterlimit="10"/>
<path d="M-413.438 82.9338C-308.207 85.3515 -216.679 126.665 -109.226 112.708C-18.4382 100.927 58.0007 64.9597 148.064 52.0811C240.916 38.8173 347.092 59.1224 437.392 72.5789C524.841 85.6116 611.155 103.2 699.329 114.191C776.303 123.823 835.275 98.9621 907.461 89.1467C952.209 83.0301 990.263 87.6248 1031.25 99.4148C1081.94 113.959 1134.8 125.49 1189.1 133.851C1284.62 148.608 1396.13 159.271 1494.28 150.101C1617.6 138.59 1732.74 105.551 1854.69 90.2255" stroke="url(#paint42_linear_225_12212)" stroke-opacity="0.12" stroke-width="0.757426" stroke-miterlimit="10"/>
<path d="M-413.408 76.9725C-307.42 79.5155 -215.734 121.224 -107.384 107.575C-16.6749 96.141 60.3784 60.9345 150.599 48.6436C243.325 36.0058 348.682 56.1665 438.84 69.3244C525.659 81.991 611.864 98.8381 699.753 108.422C776.334 116.774 837.589 93.4151 910.327 85.0637C955.39 79.8911 993.712 84.9385 1034.84 96.6226C1085.14 110.805 1137.69 121.78 1191.67 129.373C1287.75 143.012 1397.56 151.027 1495.66 141.895C1618.03 130.519 1733.89 100.967 1854.72 85.3334" stroke="url(#paint43_linear_225_12212)" stroke-opacity="0.12" stroke-width="0.757426" stroke-miterlimit="10"/>
<path d="M-413.376 71.1922C-306.649 73.87 -214.727 115.973 -105.541 102.652C-14.8165 91.584 62.8825 57.1578 153.214 45.4736C245.813 33.5005 350.336 53.4589 440.431 66.3086C526.635 78.6092 612.714 94.6472 700.32 102.835C776.57 109.953 840.156 88.1164 913.414 81.3063C958.808 77.0776 997.397 82.6066 1038.68 94.1174C1088.59 107.933 1140.83 118.341 1194.47 125.153C1291.2 137.608 1399.14 142.886 1497.2 133.822C1618.49 122.591 1735.04 96.6025 1854.75 80.709" stroke="url(#paint44_linear_225_12212)" stroke-opacity="0.12" stroke-width="0.757426" stroke-miterlimit="10"/>
<path d="M-413.346 65.5964C-305.846 68.4187 -213.688 110.869 -103.605 97.9518C-12.88 87.2694 65.4648 53.6233 155.906 42.575C248.38 31.305 352.052 51.013 442.037 63.5351C527.658 75.4504 613.579 90.6311 700.807 97.4316C776.79 103.356 842.691 83.0697 916.421 77.8007C962.099 74.5353 1000.99 80.5652 1042.43 91.9315C1091.95 105.354 1143.88 115.166 1197.15 121.166C1294.49 132.368 1400.52 134.863 1498.59 125.867C1618.99 114.828 1736 92.4324 1854.67 76.3077" stroke="url(#paint45_linear_225_12212)" stroke-opacity="0.12" stroke-width="0.757426" stroke-miterlimit="10"/>
<path d="M-413.312 60.2026C-305.025 63.1694 -212.599 106.053 -101.634 93.473C-10.9251 83.176 68.1127 50.339 158.664 39.9745C250.98 29.3789 353.786 48.8653 443.755 61.0407C528.81 72.5996 614.542 86.8459 701.408 92.269C777.248 97.0081 845.402 78.302 919.699 74.5838C965.707 72.2817 1004.75 78.8414 1046.59 90.0535C1095.73 103.076 1147.34 112.279 1200.22 117.448C1422.31 139.882 1639.94 102.036 1854.89 72.1757" stroke="url(#paint46_linear_225_12212)" stroke-opacity="0.12" stroke-width="0.757426" stroke-miterlimit="10"/>
<path d="M-413.281 54.9805C-304.191 58.1111 -211.497 101.37 -99.6185 89.1853C-8.90921 79.3024 70.8059 47.2842 161.468 37.5266C253.626 27.6052 355.566 46.8508 445.346 58.6697C529.912 69.8337 615.392 83.1554 701.865 87.1721C777.689 90.7265 847.985 73.6867 922.833 71.4712C969.11 70.1227 1008.49 77.2507 1050.56 88.2991C1099.13 101.139 1150.72 109.327 1203.09 113.854C1419.52 132.57 1645.26 97.8255 1854.84 68.1673" stroke="url(#paint47_linear_225_12212)" stroke-opacity="0.12" stroke-width="0.757426" stroke-miterlimit="10"/>
<path d="M-413.25 49.9731C-303.356 53.2674 -210.379 96.9022 -97.5868 85.1218C-6.86184 75.6146 73.5149 44.4537 164.287 35.351C256.288 26.1328 357.345 45.1183 447.031 56.5424C531.141 67.2825 616.321 79.6602 702.4 82.3669C778.366 84.7557 850.647 69.3246 926.062 68.6792C972.606 68.2843 1012.24 75.971 1054.64 86.8845C1102.9 99.3007 1154.13 106.785 1206.07 110.503C1305 117.583 1405.31 111.553 1503.43 102.894C1621.15 92.5002 1739.04 81.0954 1854.88 64.3639" stroke="url(#paint48_linear_225_12212)" stroke-opacity="0.12" stroke-width="0.757426" stroke-miterlimit="10"/>
<path d="M-413.219 45.1672C-303.467 48.5675 -210.616 92.2794 -97.9341 81.5104C-7.57141 72.8412 72.9628 42.894 163.026 33.8106C254.066 24.6309 353.092 42.8458 441.99 53.846C527.927 64.4417 614.982 76.28 702.95 77.7634C781.043 79.083 857.135 64.4995 935.055 66.2044C982.087 67.2351 1021.29 76.6364 1064.4 87.0779C1109.18 97.924 1156.47 104.137 1204.28 107.075C1306.07 113.326 1407.01 104.108 1507.58 95.41C1623.67 85.373 1740.79 77.6478 1854.95 60.8681" stroke="url(#paint49_linear_225_12212)" stroke-opacity="0.12" stroke-width="0.757426" stroke-miterlimit="10"/>
<path d="M-413.204 40.5707C-302.696 44.1347 -209.467 88.2126 -95.9501 77.8578C-5.57163 69.6124 75.6084 40.4551 165.814 32.0364C256.665 23.5984 354.903 41.5532 443.675 52.197C529.202 62.4652 615.926 73.3883 703.438 73.3883C781.988 73.3883 859.765 60.741 938.331 63.9678C985.426 65.8943 1024.96 75.835 1068.4 86.055C1112.88 96.5158 1159.85 102.074 1207.26 104.27C1309.37 108.999 1408.57 96.8337 1509.13 88.3764C1624.45 78.6765 1741.56 74.5442 1854.92 57.5526" stroke="url(#paint50_linear_225_12212)" stroke-opacity="0.12" stroke-width="0.757426" stroke-miterlimit="10"/>
<path d="M-413.17 36.198C-301.827 39.9258 -208.409 84.3601 -93.9314 74.4098C-3.52138 66.5498 78.2887 38.2112 168.62 30.4475C259.282 22.6356 356.748 40.4652 445.473 50.7622C530.528 60.6547 616.921 70.5954 703.976 69.1891C783.093 67.908 862.398 57.1582 941.625 61.8877C988.783 64.71 1028.63 75.1804 1072.36 85.1789C1116.46 95.264 1163.21 100.167 1210.18 101.621C1312.56 104.81 1410.12 89.7543 1510.64 81.5282C1625.24 72.1462 1742.18 71.6261 1854.88 54.4226" stroke="url(#paint51_linear_225_12212)" stroke-opacity="0.12" stroke-width="0.757426" stroke-miterlimit="10"/>
<path d="M-413.14 32.0478C-301.025 35.9008 -207.213 80.7108 -91.9322 71.1747C-1.5065 63.6903 80.9335 36.1223 171.407 29.0521C261.88 21.9819 358.558 39.5707 447.047 49.5114C531.897 59.0475 617.881 68.0538 704.463 65.2315C784.273 62.6308 864.933 53.8075 944.821 60.0204C992.074 63.6903 1032.21 74.7291 1076.34 84.4964C1120.48 94.2636 1166.63 98.4634 1213.15 99.1954C1315.53 100.823 1411.8 82.9455 1512.21 74.9506C1626.16 65.8769 1743 68.9593 1854.94 51.5053" stroke="url(#paint52_linear_225_12212)" stroke-opacity="0.12" stroke-width="0.757426" stroke-miterlimit="10"/>
<path d="M-413.124 28.1163C-300.238 32.1619 -206.095 77.2416 -89.995 68.1486C0.477985 61.0302 83.5165 34.3003 174.116 27.8273C264.336 21.3832 360.417 38.8564 448.748 48.4599C533.346 57.6493 618.857 65.7116 705.014 61.5022C785.611 57.5626 867.469 50.6561 948.066 58.3235C995.177 62.8122 1035.78 74.4289 1080.23 83.9747C1123.86 93.3374 1170.01 96.9399 1216.04 96.9688C1318.42 97.0459 1413.46 76.4325 1513.73 68.6495C1627.13 59.8455 1743.69 66.5207 1854.94 48.7874" stroke="url(#paint53_linear_225_12212)" stroke-opacity="0.12" stroke-width="0.757426" stroke-miterlimit="10"/>
<path d="M-413.109 24.4277C-299.466 28.6082 -205.04 74.0636 -88.1055 65.3174C2.41476 58.5747 86.0518 32.5671 176.761 26.7877C266.888 21.0082 362.007 38.3466 450.354 47.613C534.778 56.4363 619.864 63.5932 705.518 58.016C786.981 52.7182 869.894 47.7286 951.231 56.8216C998.326 62.0712 1039.28 74.2755 1084.06 83.5997C1127.48 92.6349 1173.24 95.5921 1218.84 94.9371C1321.06 93.4826 1415.11 70.2299 1515.24 62.6299C1628 54.0763 1744.26 64.3445 1854.98 46.2548" stroke="url(#paint54_linear_225_12212)" stroke-opacity="0.12" stroke-width="0.757426" stroke-miterlimit="10"/>
<path d="M-413.078 20.9697C-298.726 25.2947 -203.969 71.0583 -86.2629 62.6974C4.30457 56.2533 88.5717 31.0838 179.328 25.8534C269.266 20.6711 363.613 37.9806 451.913 46.9002C536.18 55.3864 620.841 61.6474 706.006 54.7314C788.383 48.0465 872.319 44.9448 954.224 55.4345C1001.27 61.4548 1042.57 74.237 1087.74 83.3686C1130.9 92.0377 1176.42 94.4266 1221.63 93.1069C1323.58 90.1498 1416.83 64.3734 1516.78 56.9372C1629.01 48.5859 1744.92 62.418 1855.11 43.972" stroke="url(#paint55_linear_225_12212)" stroke-opacity="0.12" stroke-width="0.757426" stroke-miterlimit="10"/>
<path d="M-413.06 17.7529C-298.078 22.2127 -202.974 68.3039 -84.5122 60.2801C6.10252 54.1346 90.8422 29.726 181.803 25.0736C271.583 20.4885 365.238 37.7691 453.396 46.3805C537.553 54.6162 621.788 59.9333 706.449 51.7072C789.787 43.616 874.479 42.3638 957.093 54.2116C1004.05 60.9543 1045.74 74.3145 1091.21 83.2341C1134.15 91.6529 1179.42 93.3963 1224.15 91.4506C1325.74 87.0293 1418.34 58.8737 1518.11 51.5338C1629.94 43.3366 1745.38 60.7135 1855.08 41.8243" stroke="url(#paint56_linear_225_12212)" stroke-opacity="0.12" stroke-width="0.757426" stroke-miterlimit="10"/>
<path d="M-413.044 14.7959C-297.338 19.3617 -201.982 65.761 -82.8585 58.0551C7.83502 52.1986 93.0944 28.5125 184.15 24.4283C273.788 20.4116 366.719 37.6922 454.797 46.0338C538.876 53.9999 622.702 58.4308 706.89 48.9236C791.078 39.4164 876.606 39.975 959.865 53.1329C1006.71 60.5403 1048.81 74.3243 1094.53 83.2054C1137.06 91.4796 1182.39 92.5199 1226.57 89.9481C1327.76 84.1686 1419.84 53.7398 1519.4 46.4962C1630.74 38.3953 1745.85 59.2881 1855.08 39.8884" stroke="url(#paint57_linear_225_12212)" stroke-opacity="0.12" stroke-width="0.757426" stroke-miterlimit="10"/>
<path d="M-412.951 12.0391C-296.615 16.7012 -201.055 63.4088 -81.2222 56.0014C9.4398 50.4243 95.2033 27.4509 186.369 23.8966C275.803 20.4096 368.134 37.748 456.119 45.8489C540.149 53.5548 623.582 57.1477 707.282 46.3883C792.557 35.4362 878.588 37.7191 962.446 52.1677C1009.19 60.2012 1051.66 74.5053 1097.65 83.2612C1140.01 91.3235 1185.1 91.7859 1228.82 88.6939C1276.53 85.3129 1323.05 77.5684 1368.85 68.9763C1418.28 59.7196 1469.14 45.5984 1520.63 41.861C1631.59 33.7987 1746.3 58.1591 1855.09 38.1815" stroke="url(#paint58_linear_225_12212)" stroke-opacity="0.12" stroke-width="0.757426" stroke-miterlimit="10"/>
<path d="M-412.951 9.63281C-296.048 14.372 -200.314 61.3782 -79.7888 54.2213C10.9519 48.8271 97.1722 26.4896 188.448 23.465C277.74 20.4693 369.41 37.9136 457.316 45.8122C541.347 53.3447 624.448 56.09 707.66 44.1169C793.865 31.7103 880.463 35.65 964.935 51.3508C1011.48 60.02 1054.31 74.7576 1100.53 83.3883C1142.71 91.258 1187.6 91.2002 1230.9 87.5784C1278.52 83.6098 1324.76 75.1911 1370.3 66.0499C1419.36 56.2056 1470.3 41.3524 1521.78 37.5861C1632.39 29.5045 1746.74 57.2844 1855.11 36.6229" stroke="url(#paint59_linear_225_12212)" stroke-opacity="0.12" stroke-width="0.757426" stroke-miterlimit="10"/>
<path d="M-412.951 7.44629C-295.513 12.2625 -199.527 59.5481 -78.4815 52.6031C12.3222 47.3823 98.952 25.719 190.307 23.1279C279.473 20.5945 370.528 38.2411 458.371 45.9375C542.418 53.287 625.22 55.2616 707.943 42.0845C795.14 28.2427 882.132 33.7332 967.203 50.6381C1013.57 59.8467 1056.71 75.037 1103.18 83.5713C1145.19 91.2773 1189.81 90.7379 1232.79 86.6441C1280.3 82.1168 1326.31 73.0624 1371.61 63.4203C1420.34 53.0462 1471.34 37.538 1522.81 33.7139C1633.07 25.5263 1747.15 56.6872 1855.16 35.284" stroke="url(#paint60_linear_225_12212)" stroke-opacity="0.12" stroke-width="0.757426" stroke-miterlimit="10"/>
<path d="M-412.951 5.52832C-295.024 10.3445 -198.881 57.9576 -77.316 51.1764C13.598 46.1001 100.669 25.034 192.118 22.8667C281.189 20.7475 371.678 38.6542 459.426 46.1964C543.504 53.4111 626.07 54.6537 708.29 40.3495C796.385 25.0243 883.597 31.9597 969.266 49.9819C1015.48 59.7203 1058.9 75.3056 1105.56 83.7628C1147.42 91.3436 1191.89 90.3803 1234.46 85.8531C1281.91 80.8057 1327.66 71.1733 1372.76 61.0689C1421.22 50.1939 1472.25 34.1559 1523.79 30.2451C1633.83 21.8842 1747.63 56.349 1855.16 34.0981" stroke="url(#paint61_linear_225_12212)" stroke-opacity="0.12" stroke-width="0.757426" stroke-miterlimit="10"/>
<path d="M-412.951 3.8916C-294.568 8.70781 -198.33 56.6195 -76.2921 49.9442C14.6377 44.9739 102.102 24.4665 193.63 22.6363C282.607 20.8928 372.497 39.1174 460.245 46.5536C544.371 53.6816 626.779 54.2595 708.526 38.8477C797.535 22.0583 884.794 30.3037 971.093 49.4433C1017.1 59.6537 1060.78 75.5953 1107.61 83.9948C1149.35 91.4888 1193.59 90.1596 1235.87 85.247C1283.24 79.7277 1328.8 69.5751 1373.7 59.0468C1421.95 47.7288 1472.93 31.2766 1524.61 27.2599C1634.41 18.6388 1748.07 56.3498 1855.17 33.1164" stroke="url(#paint62_linear_225_12212)" stroke-opacity="0.12" stroke-width="0.757426" stroke-miterlimit="10"/>
<path d="M-412.951 2.52441C-295.15 7.34063 -199.228 55.2523 -77.8987 49.0394C17.9768 44.1365 110.655 21.9915 207.397 22.4443C290.104 22.8296 373.096 39.4455 454.796 46.5927C541.599 54.1831 624.684 53.9712 708.747 37.7213C801.96 19.7472 889.299 29.1966 979.142 50.5709C1019.42 60.1456 1057.79 73.2071 1098.36 82.1749C1141.3 91.6628 1188.44 90.7381 1232.62 85.4692C1282.76 79.4971 1330.75 68.1308 1378.03 56.5719C1425.69 44.8782 1476.37 28.4164 1527.76 24.5634C1636.44 16.4625 1749.47 56.4563 1855.16 32.3368" stroke="url(#paint63_linear_225_12212)" stroke-opacity="0.12" stroke-width="0.757426" stroke-miterlimit="10"/>
<path d="M-412.951 1.44434C-294.82 6.19312 -198.897 54.4227 -77.2372 48.2001C18.6699 43.2876 111.773 21.6628 208.484 22.3852C291.128 23.0113 373.694 40.0896 455.347 47.2465C542.213 54.8561 625.283 54.1048 708.936 36.7953C803.095 17.2993 889.976 27.8564 980.56 50.2807C1020.65 60.2021 1059.12 73.3793 1099.81 82.3567C1142.65 91.8543 1189.59 90.7369 1233.52 85.1694C1283.62 78.8216 1331.43 66.9641 1378.57 55.0969C1426.17 43.1142 1476.82 26.4694 1528.34 22.4238C1636.82 13.9665 1749.97 56.956 1855.17 31.6709" stroke="url(#paint64_linear_225_12212)" stroke-opacity="0.12" stroke-width="0.757426" stroke-miterlimit="10"/>
<path d="M-412.951 0.673828C-294.583 5.34555 -198.739 53.8641 -76.7331 47.5452C19.1897 42.5749 112.498 21.4124 209.334 22.366C291.947 23.1752 374.12 40.8025 455.741 48.0172C542.654 55.7231 625.85 54.4998 708.967 36.15C804.04 15.1706 890.228 26.6139 981.583 49.9822C1021.57 60.2022 1060.15 73.5142 1100.86 82.5976C1143.68 92.1433 1190.2 90.9393 1234.1 85.1117C1335.52 71.6263 1426.39 29.4073 1528.78 20.8923C1637.07 11.886 1750.53 57.7748 1855.17 31.2182" stroke="url(#paint65_linear_225_12212)" stroke-opacity="0.12" stroke-width="0.757426" stroke-miterlimit="10"/>
<path d="M-412.951 0.18457C-294.394 4.75997 -198.582 53.5675 -76.4339 47.0945C19.5046 41.9989 113.128 21.2507 209.917 22.3584C292.546 23.3216 374.356 41.5655 455.945 48.9054C542.89 56.7269 626.37 55.1472 709.015 35.8053C804.922 13.3521 890.15 25.46 982.371 49.7723C1022.03 60.2042 1060.7 74.0267 1101.51 82.7537C1144.86 92.0105 1189.98 91.2591 1234.35 85.1714C1335.95 71.2237 1426.31 28.9662 1529.07 19.8347C1637.21 10.2023 1751.15 58.8942 1855.11 30.9313" stroke="url(#paint66_linear_225_12212)" stroke-opacity="0.12" stroke-width="0.757426" stroke-miterlimit="10"/>
<path d="M-412.951 0C-294.268 4.44055 -198.629 53.537 -76.3552 46.8232C19.5833 41.5543 113.332 21.1528 210.311 22.3472C292.955 23.3683 374.45 42.3827 456.024 49.8959C542.969 57.9005 626.889 56.0607 709.046 35.7459C805.693 11.8286 889.724 24.37 982.827 49.607C1067.88 72.6477 1137.96 98.8768 1234.27 85.3722C1336.14 71.0873 1426.07 29.1862 1529.19 19.3226C1637.21 8.98705 1751.75 60.3086 1855.24 30.8815" stroke="url(#paint67_linear_225_12212)" stroke-opacity="0.12" stroke-width="0.757426" stroke-miterlimit="10"/>
</g>
<defs>
<linearGradient id="paint0_linear_225_12212" x1="1.63472e+06" y1="1105.08" x2="1.63472e+06" y2="656.523" gradientUnits="userSpaceOnUse">
<stop stop-color="#424CD2"/>
<stop offset="1" stop-color="#4987E9"/>
</linearGradient>
<linearGradient id="paint1_linear_225_12212" x1="1.63477e+06" y1="1607.23" x2="1.63477e+06" y2="778.868" gradientUnits="userSpaceOnUse">
<stop stop-color="#424CD2"/>
<stop offset="1" stop-color="#4987E9"/>
</linearGradient>
<linearGradient id="paint2_linear_225_12212" x1="1.63477e+06" y1="2356.65" x2="1.63477e+06" y2="968.217" gradientUnits="userSpaceOnUse">
<stop stop-color="#424CD2"/>
<stop offset="1" stop-color="#4987E9"/>
</linearGradient>
<linearGradient id="paint3_linear_225_12212" x1="1.63477e+06" y1="3601.15" x2="1.63477e+06" y2="1289.17" gradientUnits="userSpaceOnUse">
<stop stop-color="#424CD2"/>
<stop offset="1" stop-color="#4987E9"/>
</linearGradient>
<linearGradient id="paint4_linear_225_12212" x1="1.63477e+06" y1="4969.89" x2="1.63477e+06" y2="1643.96" gradientUnits="userSpaceOnUse">
<stop stop-color="#424CD2"/>
<stop offset="1" stop-color="#4987E9"/>
</linearGradient>
<linearGradient id="paint5_linear_225_12212" x1="1.63477e+06" y1="6635.78" x2="1.63477e+06" y2="2077.72" gradientUnits="userSpaceOnUse">
<stop stop-color="#424CD2"/>
<stop offset="1" stop-color="#4987E9"/>
</linearGradient>
<linearGradient id="paint6_linear_225_12212" x1="1.63474e+06" y1="8387.38" x2="1.63474e+06" y2="2534.59" gradientUnits="userSpaceOnUse">
<stop stop-color="#424CD2"/>
<stop offset="1" stop-color="#4987E9"/>
</linearGradient>
<linearGradient id="paint7_linear_225_12212" x1="1.63478e+06" y1="10144.2" x2="1.63478e+06" y2="2993.1" gradientUnits="userSpaceOnUse">
<stop stop-color="#424CD2"/>
<stop offset="1" stop-color="#4987E9"/>
</linearGradient>
<linearGradient id="paint8_linear_225_12212" x1="1.63473e+06" y1="11814.2" x2="1.63473e+06" y2="3428.67" gradientUnits="userSpaceOnUse">
<stop stop-color="#424CD2"/>
<stop offset="1" stop-color="#4987E9"/>
</linearGradient>
<linearGradient id="paint9_linear_225_12212" x1="1.63477e+06" y1="13470.9" x2="1.63477e+06" y2="3860.31" gradientUnits="userSpaceOnUse">
<stop stop-color="#424CD2"/>
<stop offset="1" stop-color="#4987E9"/>
</linearGradient>
<linearGradient id="paint10_linear_225_12212" x1="1.63477e+06" y1="14743.1" x2="1.63477e+06" y2="4190.27" gradientUnits="userSpaceOnUse">
<stop stop-color="#424CD2"/>
<stop offset="1" stop-color="#4987E9"/>
</linearGradient>
<linearGradient id="paint11_linear_225_12212" x1="1.63477e+06" y1="15685.4" x2="1.63477e+06" y2="4432.55" gradientUnits="userSpaceOnUse">
<stop stop-color="#424CD2"/>
<stop offset="1" stop-color="#4987E9"/>
</linearGradient>
<linearGradient id="paint12_linear_225_12212" x1="1.63481e+06" y1="16188" x2="1.63481e+06" y2="4557.84" gradientUnits="userSpaceOnUse">
<stop stop-color="#424CD2"/>
<stop offset="1" stop-color="#4987E9"/>
</linearGradient>
<linearGradient id="paint13_linear_225_12212" x1="1.63477e+06" y1="16410.6" x2="1.63477e+06" y2="4608.14" gradientUnits="userSpaceOnUse">
<stop stop-color="#424CD2"/>
<stop offset="1" stop-color="#4987E9"/>
</linearGradient>
<linearGradient id="paint14_linear_225_12212" x1="1.63473e+06" y1="16636.2" x2="1.63473e+06" y2="4659.23" gradientUnits="userSpaceOnUse">
<stop stop-color="#424CD2"/>
<stop offset="1" stop-color="#4987E9"/>
</linearGradient>
<linearGradient id="paint15_linear_225_12212" x1="1.63474e+06" y1="16763.4" x2="1.63474e+06" y2="4684.77" gradientUnits="userSpaceOnUse">
<stop stop-color="#424CD2"/>
<stop offset="1" stop-color="#4987E9"/>
</linearGradient>
<linearGradient id="paint16_linear_225_12212" x1="1.6348e+06" y1="16799.3" x2="1.6348e+06" y2="4686.52" gradientUnits="userSpaceOnUse">
<stop stop-color="#424CD2"/>
<stop offset="1" stop-color="#4987E9"/>
</linearGradient>
<linearGradient id="paint17_linear_225_12212" x1="1.63477e+06" y1="16755.3" x2="1.63477e+06" y2="4667.5" gradientUnits="userSpaceOnUse">
<stop stop-color="#424CD2"/>
<stop offset="1" stop-color="#4987E9"/>
</linearGradient>
<linearGradient id="paint18_linear_225_12212" x1="1.63477e+06" y1="16638.7" x2="1.63477e+06" y2="4629.67" gradientUnits="userSpaceOnUse">
<stop stop-color="#424CD2"/>
<stop offset="1" stop-color="#4987E9"/>
</linearGradient>
<linearGradient id="paint19_linear_225_12212" x1="1.63478e+06" y1="16372.5" x2="1.63478e+06" y2="4552.77" gradientUnits="userSpaceOnUse">
<stop stop-color="#424CD2"/>
<stop offset="1" stop-color="#4987E9"/>
</linearGradient>
<linearGradient id="paint20_linear_225_12212" x1="1.63479e+06" y1="16194" x2="1.63479e+06" y2="4499.12" gradientUnits="userSpaceOnUse">
<stop stop-color="#424CD2"/>
<stop offset="1" stop-color="#4987E9"/>
</linearGradient>
<linearGradient id="paint21_linear_225_12212" x1="1.63472e+06" y1="15978.6" x2="1.63472e+06" y2="4435.92" gradientUnits="userSpaceOnUse">
<stop stop-color="#424CD2"/>
<stop offset="1" stop-color="#4987E9"/>
</linearGradient>
<linearGradient id="paint22_linear_225_12212" x1="1.63477e+06" y1="15750" x2="1.63477e+06" y2="4369.46" gradientUnits="userSpaceOnUse">
<stop stop-color="#424CD2"/>
<stop offset="1" stop-color="#4987E9"/>
</linearGradient>
<linearGradient id="paint23_linear_225_12212" x1="1.63481e+06" y1="15508.2" x2="1.63481e+06" y2="4299.7" gradientUnits="userSpaceOnUse">
<stop stop-color="#424CD2"/>
<stop offset="1" stop-color="#4987E9"/>
</linearGradient>
<linearGradient id="paint24_linear_225_12212" x1="1.63475e+06" y1="15263.3" x2="1.63475e+06" y2="4229.22" gradientUnits="userSpaceOnUse">
<stop stop-color="#424CD2"/>
<stop offset="1" stop-color="#4987E9"/>
</linearGradient>
<linearGradient id="paint25_linear_225_12212" x1="1.63477e+06" y1="14944.4" x2="1.63477e+06" y2="4139.42" gradientUnits="userSpaceOnUse">
<stop stop-color="#424CD2"/>
<stop offset="1" stop-color="#4987E9"/>
</linearGradient>
<linearGradient id="paint26_linear_225_12212" x1="1.63472e+06" y1="14716.1" x2="1.63472e+06" y2="4073.57" gradientUnits="userSpaceOnUse">
<stop stop-color="#424CD2"/>
<stop offset="1" stop-color="#4987E9"/>
</linearGradient>
<linearGradient id="paint27_linear_225_12212" x1="1.63473e+06" y1="14512.7" x2="1.63473e+06" y2="4014.31" gradientUnits="userSpaceOnUse">
<stop stop-color="#424CD2"/>
<stop offset="1" stop-color="#4987E9"/>
</linearGradient>
<linearGradient id="paint28_linear_225_12212" x1="1.63472e+06" y1="14352.9" x2="1.63472e+06" y2="3966.62" gradientUnits="userSpaceOnUse">
<stop stop-color="#424CD2"/>
<stop offset="1" stop-color="#4987E9"/>
</linearGradient>
<linearGradient id="paint29_linear_225_12212" x1="1.63481e+06" y1="14215" x2="1.63481e+06" y2="3924.63" gradientUnits="userSpaceOnUse">
<stop stop-color="#424CD2"/>
<stop offset="1" stop-color="#4987E9"/>
</linearGradient>
<linearGradient id="paint30_linear_225_12212" x1="1.63477e+06" y1="14146.6" x2="1.63477e+06" y2="3900.98" gradientUnits="userSpaceOnUse">
<stop stop-color="#424CD2"/>
<stop offset="1" stop-color="#4987E9"/>
</linearGradient>
<linearGradient id="paint31_linear_225_12212" x1="1.63477e+06" y1="14113.8" x2="1.63477e+06" y2="3886.68" gradientUnits="userSpaceOnUse">
<stop stop-color="#424CD2"/>
<stop offset="1" stop-color="#4987E9"/>
</linearGradient>
<linearGradient id="paint32_linear_225_12212" x1="1.6348e+06" y1="14023.4" x2="1.6348e+06" y2="3857.16" gradientUnits="userSpaceOnUse">
<stop stop-color="#424CD2"/>
<stop offset="1" stop-color="#4987E9"/>
</linearGradient>
<linearGradient id="paint33_linear_225_12212" x1="1.63477e+06" y1="13887.7" x2="1.63477e+06" y2="3815.66" gradientUnits="userSpaceOnUse">
<stop stop-color="#424CD2"/>
<stop offset="1" stop-color="#4987E9"/>
</linearGradient>
<linearGradient id="paint34_linear_225_12212" x1="1.6348e+06" y1="13689.7" x2="1.6348e+06" y2="3757.67" gradientUnits="userSpaceOnUse">
<stop stop-color="#424CD2"/>
<stop offset="1" stop-color="#4987E9"/>
</linearGradient>
<linearGradient id="paint35_linear_225_12212" x1="1.63477e+06" y1="13452.5" x2="1.63477e+06" y2="3689.4" gradientUnits="userSpaceOnUse">
<stop stop-color="#424CD2"/>
<stop offset="1" stop-color="#4987E9"/>
</linearGradient>
<linearGradient id="paint36_linear_225_12212" x1="1.6348e+06" y1="13168.9" x2="1.6348e+06" y2="3608.85" gradientUnits="userSpaceOnUse">
<stop stop-color="#424CD2"/>
<stop offset="1" stop-color="#4987E9"/>
</linearGradient>
<linearGradient id="paint37_linear_225_12212" x1="1.63476e+06" y1="12852.8" x2="1.63476e+06" y2="3519.82" gradientUnits="userSpaceOnUse">
<stop stop-color="#424CD2"/>
<stop offset="1" stop-color="#4987E9"/>
</linearGradient>
<linearGradient id="paint38_linear_225_12212" x1="1.63477e+06" y1="12494.9" x2="1.63477e+06" y2="3419.73" gradientUnits="userSpaceOnUse">
<stop stop-color="#424CD2"/>
<stop offset="1" stop-color="#4987E9"/>
</linearGradient>
<linearGradient id="paint39_linear_225_12212" x1="1.63475e+06" y1="12097.6" x2="1.63475e+06" y2="3309.27" gradientUnits="userSpaceOnUse">
<stop stop-color="#424CD2"/>
<stop offset="1" stop-color="#4987E9"/>
</linearGradient>
<linearGradient id="paint40_linear_225_12212" x1="1.63477e+06" y1="11687.8" x2="1.63477e+06" y2="3195.69" gradientUnits="userSpaceOnUse">
<stop stop-color="#424CD2"/>
<stop offset="1" stop-color="#4987E9"/>
</linearGradient>
<linearGradient id="paint41_linear_225_12212" x1="1.63477e+06" y1="11245" x2="1.63477e+06" y2="3073.4" gradientUnits="userSpaceOnUse">
<stop stop-color="#424CD2"/>
<stop offset="1" stop-color="#4987E9"/>
</linearGradient>
<linearGradient id="paint42_linear_225_12212" x1="1.63477e+06" y1="10798.7" x2="1.63477e+06" y2="2950.42" gradientUnits="userSpaceOnUse">
<stop stop-color="#424CD2"/>
<stop offset="1" stop-color="#4987E9"/>
</linearGradient>
<linearGradient id="paint43_linear_225_12212" x1="1.63477e+06" y1="10329.1" x2="1.63477e+06" y2="2821.35" gradientUnits="userSpaceOnUse">
<stop stop-color="#424CD2"/>
<stop offset="1" stop-color="#4987E9"/>
</linearGradient>
<linearGradient id="paint44_linear_225_12212" x1="1.63477e+06" y1="9861.63" x2="1.63477e+06" y2="2693.06" gradientUnits="userSpaceOnUse">
<stop stop-color="#424CD2"/>
<stop offset="1" stop-color="#4987E9"/>
</linearGradient>
<linearGradient id="paint45_linear_225_12212" x1="1.63469e+06" y1="9404" x2="1.63469e+06" y2="2567.63" gradientUnits="userSpaceOnUse">
<stop stop-color="#424CD2"/>
<stop offset="1" stop-color="#4987E9"/>
</linearGradient>
<linearGradient id="paint46_linear_225_12212" x1="1.63483e+06" y1="8913.86" x2="1.63483e+06" y2="2433.62" gradientUnits="userSpaceOnUse">
<stop stop-color="#424CD2"/>
<stop offset="1" stop-color="#4987E9"/>
</linearGradient>
<linearGradient id="paint47_linear_225_12212" x1="1.63477e+06" y1="8611.67" x2="1.63477e+06" y2="2350.46" gradientUnits="userSpaceOnUse">
<stop stop-color="#424CD2"/>
<stop offset="1" stop-color="#4987E9"/>
</linearGradient>
<linearGradient id="paint48_linear_225_12212" x1="1.63477e+06" y1="8239.3" x2="1.63477e+06" y2="2248.56" gradientUnits="userSpaceOnUse">
<stop stop-color="#424CD2"/>
<stop offset="1" stop-color="#4987E9"/>
</linearGradient>
<linearGradient id="paint49_linear_225_12212" x1="1.6348e+06" y1="7943.29" x2="1.6348e+06" y2="2167.47" gradientUnits="userSpaceOnUse">
<stop stop-color="#424CD2"/>
<stop offset="1" stop-color="#4987E9"/>
</linearGradient>
<linearGradient id="paint50_linear_225_12212" x1="1.63477e+06" y1="7703.85" x2="1.63477e+06" y2="2101.76" gradientUnits="userSpaceOnUse">
<stop stop-color="#424CD2"/>
<stop offset="1" stop-color="#4987E9"/>
</linearGradient>
<linearGradient id="paint51_linear_225_12212" x1="1.63471e+06" y1="7504.76" x2="1.63471e+06" y2="2047.04" gradientUnits="userSpaceOnUse">
<stop stop-color="#424CD2"/>
<stop offset="1" stop-color="#4987E9"/>
</linearGradient>
<linearGradient id="paint52_linear_225_12212" x1="1.63473e+06" y1="7335.42" x2="1.63473e+06" y2="2000.52" gradientUnits="userSpaceOnUse">
<stop stop-color="#424CD2"/>
<stop offset="1" stop-color="#4987E9"/>
</linearGradient>
<linearGradient id="paint53_linear_225_12212" x1="1.63472e+06" y1="7197.67" x2="1.63472e+06" y2="1962.6" gradientUnits="userSpaceOnUse">
<stop stop-color="#424CD2"/>
<stop offset="1" stop-color="#4987E9"/>
</linearGradient>
<linearGradient id="paint54_linear_225_12212" x1="1.63475e+06" y1="7201.99" x2="1.63475e+06" y2="1962.31" gradientUnits="userSpaceOnUse">
<stop stop-color="#424CD2"/>
<stop offset="1" stop-color="#4987E9"/>
</linearGradient>
<linearGradient id="paint55_linear_225_12212" x1="1.63481e+06" y1="7389.62" x2="1.63481e+06" y2="2010.44" gradientUnits="userSpaceOnUse">
<stop stop-color="#424CD2"/>
<stop offset="1" stop-color="#4987E9"/>
</linearGradient>
<linearGradient id="paint56_linear_225_12212" x1="1.63478e+06" y1="7584.02" x2="1.63478e+06" y2="2060.58" gradientUnits="userSpaceOnUse">
<stop stop-color="#424CD2"/>
<stop offset="1" stop-color="#4987E9"/>
</linearGradient>
<linearGradient id="paint57_linear_225_12212" x1="1.63477e+06" y1="7781.85" x2="1.63477e+06" y2="2111.83" gradientUnits="userSpaceOnUse">
<stop stop-color="#424CD2"/>
<stop offset="1" stop-color="#4987E9"/>
</linearGradient>
<linearGradient id="paint58_linear_225_12212" x1="1.63471e+06" y1="7985.36" x2="1.63471e+06" y2="2164.76" gradientUnits="userSpaceOnUse">
<stop stop-color="#424CD2"/>
<stop offset="1" stop-color="#4987E9"/>
</linearGradient>
<linearGradient id="paint59_linear_225_12212" x1="1.63472e+06" y1="8173.98" x2="1.63472e+06" y2="2213.94" gradientUnits="userSpaceOnUse">
<stop stop-color="#424CD2"/>
<stop offset="1" stop-color="#4987E9"/>
</linearGradient>
<linearGradient id="paint60_linear_225_12212" x1="1.63476e+06" y1="8358.42" x2="1.63476e+06" y2="2262.14" gradientUnits="userSpaceOnUse">
<stop stop-color="#424CD2"/>
<stop offset="1" stop-color="#4987E9"/>
</linearGradient>
<linearGradient id="paint61_linear_225_12212" x1="1.63476e+06" y1="8528.52" x2="1.63476e+06" y2="2306.66" gradientUnits="userSpaceOnUse">
<stop stop-color="#424CD2"/>
<stop offset="1" stop-color="#4987E9"/>
</linearGradient>
<linearGradient id="paint62_linear_225_12212" x1="1.63477e+06" y1="8684.66" x2="1.63477e+06" y2="2347.62" gradientUnits="userSpaceOnUse">
<stop stop-color="#424CD2"/>
<stop offset="1" stop-color="#4987E9"/>
</linearGradient>
<linearGradient id="paint63_linear_225_12212" x1="1.63476e+06" y1="8834.35" x2="1.63476e+06" y2="2387.04" gradientUnits="userSpaceOnUse">
<stop stop-color="#424CD2"/>
<stop offset="1" stop-color="#4987E9"/>
</linearGradient>
<linearGradient id="paint64_linear_225_12212" x1="1.63477e+06" y1="8946.99" x2="1.63477e+06" y2="2416.66" gradientUnits="userSpaceOnUse">
<stop stop-color="#424CD2"/>
<stop offset="1" stop-color="#4987E9"/>
</linearGradient>
<linearGradient id="paint65_linear_225_12212" x1="1.63477e+06" y1="9044.86" x2="1.63477e+06" y2="2442.52" gradientUnits="userSpaceOnUse">
<stop stop-color="#424CD2"/>
<stop offset="1" stop-color="#4987E9"/>
</linearGradient>
<linearGradient id="paint66_linear_225_12212" x1="1.63472e+06" y1="9104.65" x2="1.63472e+06" y2="2458.31" gradientUnits="userSpaceOnUse">
<stop stop-color="#424CD2"/>
<stop offset="1" stop-color="#4987E9"/>
</linearGradient>
<linearGradient id="paint67_linear_225_12212" x1="1.63481e+06" y1="9054.84" x2="1.63481e+06" y2="2444.73" gradientUnits="userSpaceOnUse">
<stop stop-color="#424CD2"/>
<stop offset="1" stop-color="#4987E9"/>
</linearGradient>
<clipPath id="clip0_225_12212">
<rect width="1440" height="490" fill="white"/>
</clipPath>
</defs>
</svg>
